<svg width="111" height="32" viewBox="0 0 111 32" fill="none" xmlns="http://www.w3.org/2000/svg">
<path d="M0 6.87179H3.07057V13.0256H3.17292C3.42311 11.9316 3.80978 10.963 4.33291 10.1197C4.85605 9.27635 5.47016 8.5698 6.17525 8C6.88035 7.40741 7.66505 6.96296 8.52935 6.66667C9.41641 6.37037 10.3376 6.22222 11.2929 6.22222C12.3391 6.22222 13.3627 6.40456 14.3634 6.76923C15.387 7.11111 16.2968 7.65812 17.0928 8.41025C17.8889 9.1396 18.5258 10.0627 19.0034 11.1795C19.5038 12.2735 19.754 13.5726 19.754 15.0769C19.754 16.604 19.5152 17.9259 19.0375 19.0427C18.5826 20.1595 17.9685 21.0826 17.1952 21.812C16.4219 22.5413 15.5348 23.0883 14.534 23.453C13.556 23.7949 12.5552 23.9658 11.5317 23.9658C10.5309 23.9658 9.57562 23.8291 8.66582 23.5556C7.77877 23.282 6.97132 22.8718 6.24349 22.3248C5.51565 21.755 4.89016 21.0598 4.36703 20.2393C3.8439 19.396 3.44586 18.416 3.17292 17.2991H3.07057L3.1388 32H0.0341173L0 6.87179ZM3.17292 15.1111C3.17292 15.7493 3.30939 16.433 3.58233 17.1624C3.87801 17.8917 4.31017 18.5755 4.87879 19.2137C5.44741 19.8291 6.16388 20.3419 7.02819 20.7521C7.91524 21.1624 8.95014 21.3675 10.1329 21.3675C11.2474 21.3675 12.2254 21.1966 13.067 20.8547C13.9085 20.5128 14.6136 20.057 15.1823 19.4872C15.7509 18.8946 16.183 18.2222 16.4787 17.4701C16.7744 16.7179 16.9222 15.9316 16.9222 15.1111C16.9222 14.3134 16.7744 13.5385 16.4787 12.7863C16.2058 12.0114 15.7736 11.3276 15.1823 10.735C14.6136 10.1424 13.8858 9.67521 12.9987 9.33333C12.1344 8.96866 11.1109 8.78632 9.92817 8.78632C8.79092 8.78632 7.80152 8.99145 6.95995 9.40171C6.11839 9.81196 5.4133 10.3362 4.84467 10.9744C4.27605 11.6125 3.85527 12.3077 3.58233 13.0598C3.30939 13.7892 3.17292 14.4729 3.17292 15.1111Z" fill="black"/>
<path d="M35.8934 23.6923L36.064 15.1453H35.9616C35.5977 16.3077 35.1314 17.4245 34.5628 18.4957C33.9942 19.5442 33.3346 20.4786 32.584 21.2991C31.8334 22.1197 30.9919 22.7692 30.0593 23.2479C29.1495 23.7265 28.1601 23.9658 27.0911 23.9658C26.3405 23.9658 25.6354 23.8291 24.9758 23.5556C24.3162 23.282 23.7362 22.9174 23.2358 22.4615C22.7582 21.9829 22.3715 21.4359 22.0758 20.8205C21.8029 20.2051 21.6664 19.5556 21.6664 18.8718C21.6664 17.8689 21.9166 17.0256 22.417 16.3419C22.9401 15.6353 23.6111 15.0541 24.4299 14.5983C25.2715 14.1197 26.204 13.7436 27.2276 13.4701C28.2738 13.1738 29.3201 12.9231 30.3664 12.7179C31.4354 12.49 32.4589 12.2849 33.4369 12.1026C34.415 11.8974 35.2565 11.6581 35.9616 11.3846V9.50427H23.4405V6.83761H38.7593V23.6923H35.8934ZM24.7711 18.7692C24.7711 19.4986 25.044 20.1254 25.5899 20.6496C26.1586 21.151 26.875 21.4017 27.7393 21.4017C28.6036 21.4017 29.4224 21.2308 30.1958 20.8889C30.9918 20.5242 31.7311 20.0342 32.4134 19.4188C33.1185 18.8034 33.7554 18.0969 34.324 17.2991C34.9154 16.4786 35.4385 15.6011 35.8934 14.6667V13.9145C35.302 14.1197 34.6083 14.3134 33.8122 14.4957C33.0389 14.6553 32.2428 14.8148 31.424 14.9744C30.6052 15.1339 29.7977 15.3162 29.0017 15.5214C28.2056 15.7037 27.4891 15.943 26.8523 16.2393C26.2382 16.5128 25.7378 16.8547 25.3511 17.265C24.9644 17.6752 24.7711 18.1766 24.7711 18.7692Z" fill="black"/>
<path d="M41.5006 6.83761H44.7077L44.6053 13.5043H44.7418C44.992 12.4786 45.3787 11.51 45.9018 10.5983C46.4249 9.66382 47.0845 8.8661 47.8806 8.20513C48.6767 7.52137 49.6092 7.00855 50.6782 6.66667C51.77 6.32479 52.9982 6.21083 54.3629 6.32479V9.64102C52.8617 9.27635 51.5084 9.24216 50.3029 9.53846C49.0974 9.81196 48.0739 10.2678 47.2324 10.906C46.4135 11.5214 45.7767 12.2393 45.3218 13.0598C44.8896 13.8803 44.6736 14.6439 44.6736 15.3504L44.6053 23.6923H41.5006V6.83761Z" fill="black"/>
<path d="M69.6976 23.6923L69.8682 15.1453H69.7658C69.4019 16.3077 68.9357 17.4245 68.367 18.4957C67.7984 19.5442 67.1388 20.4786 66.3882 21.2991C65.6376 22.1197 64.7961 22.7692 63.8635 23.2479C62.9537 23.7265 61.9643 23.9658 60.8953 23.9658C60.1447 23.9658 59.4396 23.8291 58.78 23.5556C58.1204 23.282 57.5404 22.9174 57.0401 22.4615C56.5624 21.9829 56.1757 21.4359 55.8801 20.8205C55.6071 20.2051 55.4706 19.5556 55.4706 18.8718C55.4706 17.8689 55.7208 17.0256 56.2212 16.3419C56.7444 15.6353 57.4153 15.0541 58.2342 14.5983C59.0757 14.1197 60.0083 13.7436 61.0318 13.4701C62.0781 13.1738 63.1243 12.9231 64.1706 12.7179C65.2396 12.49 66.2631 12.2849 67.2412 12.1026C68.2192 11.8974 69.0608 11.6581 69.7658 11.3846V9.50427H57.2448V6.83761H72.5635V23.6923H69.6976ZM58.5753 18.7692C58.5753 19.4986 58.8483 20.1254 59.3942 20.6496C59.9628 21.151 60.6792 21.4017 61.5435 21.4017C62.4079 21.4017 63.2267 21.2308 64 20.8889C64.7961 20.5242 65.5353 20.0342 66.2176 19.4188C66.9227 18.8034 67.5596 18.0969 68.1282 17.2991C68.7196 16.4786 69.2427 15.6011 69.6976 14.6667V13.9145C69.1062 14.1197 68.4125 14.3134 67.6165 14.4957C66.8431 14.6553 66.0471 14.8148 65.2282 14.9744C64.4094 15.1339 63.602 15.3162 62.8059 15.5214C62.0098 15.7037 61.2934 15.943 60.6565 16.2393C60.0424 16.5128 59.542 16.8547 59.1553 17.265C58.7687 17.6752 58.5753 18.1766 58.5753 18.7692Z" fill="black"/>
<path d="M78.3413 23.7265H75.3049L75.3731 0H78.4778L78.4095 11.8632L78.3413 23.7265Z" fill="black"/>
<path d="M84.0653 23.7265H81.0289L81.0971 0H84.2018L84.0653 23.7265Z" fill="black"/>
<path d="M104.707 18.8718C104.503 19.3276 104.207 19.8518 103.82 20.4444C103.434 21.0142 102.888 21.5612 102.183 22.0855C101.5 22.6097 100.636 23.0541 99.5898 23.4188C98.5435 23.7835 97.2584 23.9658 95.7345 23.9658C94.0742 23.9658 92.6298 23.7493 91.4016 23.3162C90.1734 22.8604 89.1499 22.245 88.331 21.4701C87.535 20.6724 86.9322 19.7379 86.5228 18.6667C86.1362 17.5954 85.9428 16.4444 85.9428 15.2137C85.9428 13.6866 86.2158 12.3647 86.7617 11.2479C87.3075 10.1083 88.0126 9.17379 88.8769 8.44444C89.764 7.69231 90.7648 7.1339 91.8793 6.76923C92.9938 6.40456 94.1196 6.22222 95.2569 6.22222C96.4624 6.22222 97.6451 6.41595 98.8051 6.80342C99.9878 7.16809 101.023 7.74929 101.91 8.54701C102.82 9.34473 103.525 10.359 104.025 11.5897C104.548 12.7977 104.764 14.245 104.673 15.9316L89.0816 15.9658C89.1044 16.7407 89.2636 17.4587 89.5593 18.1197C89.8777 18.7578 90.3212 19.3162 90.8899 19.7949C91.4812 20.2735 92.1749 20.6496 92.971 20.9231C93.7898 21.1738 94.711 21.2991 95.7345 21.2991C96.7353 21.2991 97.5769 21.1738 98.2592 20.9231C98.9643 20.6724 99.5443 20.3761 99.9992 20.0342C100.454 19.6695 100.807 19.2934 101.057 18.906C101.33 18.4957 101.534 18.1424 101.671 17.8462L104.707 18.8718ZM95.3251 8.8547C94.5973 8.8547 93.8808 8.95726 93.1757 9.16239C92.4934 9.36752 91.8679 9.67521 91.2993 10.0855C90.7306 10.4957 90.2416 11.0199 89.8322 11.6581C89.4456 12.2735 89.1954 12.9915 89.0816 13.812H101.705C101.637 12.9687 101.398 12.2393 100.989 11.6239C100.579 11.0085 100.067 10.4957 99.4533 10.0855C98.862 9.67521 98.2024 9.36752 97.4745 9.16239C96.7467 8.95726 96.0302 8.8547 95.3251 8.8547Z" fill="black"/>
<path d="M110.34 23.7265H107.303L107.372 0H110.476L110.34 23.7265Z" fill="black"/>
</svg>
